<svg width="112" height="35" viewBox="0 0 112 35" fill="none" xmlns="http://www.w3.org/2000/svg">
<rect width="112" height="35" rx="6" fill="#FF5B14"/>
<path d="M58.5 17.75C59.1904 17.75 59.75 17.1904 59.75 16.5C59.75 15.8096 59.1904 15.25 58.5 15.25C57.8096 15.25 57.25 15.8096 57.25 16.5C57.25 17.1904 57.8096 17.75 58.5 17.75Z" fill="white"/>
<path d="M53.5 17.75C54.1904 17.75 54.75 17.1904 54.75 16.5C54.75 15.8096 54.1904 15.25 53.5 15.25C52.8096 15.25 52.25 15.8096 52.25 16.5C52.25 17.1904 52.8096 17.75 53.5 17.75Z" fill="white"/>
<path d="M66.94 18.66C66.98 18.45 67 18.23 67 18C67 17.77 66.98 17.55 66.94 17.34C66.69 15.83 65.58 14.6 64.13 14.17C63.6 13.05 62.85 12.07 61.94 11.26C60.36 9.85 58.28 9 56 9C53.72 9 51.64 9.85 50.06 11.26C49.14 12.07 48.39 13.06 47.87 14.17C46.42 14.6 45.31 15.82 45.06 17.34C45.02 17.55 45 17.77 45 18C45 18.23 45.02 18.45 45.06 18.66C45.31 20.17 46.42 21.4 47.87 21.83C48.39 22.94 49.14 23.92 50.04 24.72C51.62 26.14 53.71 27 56 27C58.29 27 60.38 26.14 61.97 24.72C62.87 23.92 63.62 22.93 64.14 21.83C65.58 21.4 66.69 20.18 66.94 18.66ZM63 20C62.9 20 62.81 19.98 62.71 19.97C62.51 20.64 62.22 21.26 61.85 21.83C60.6 23.74 58.45 25 56 25C53.55 25 51.4 23.74 50.15 21.83C49.78 21.26 49.49 20.64 49.29 19.97C49.19 19.98 49.1 20 49 20C47.9 20 47 19.1 47 18C47 16.9 47.9 16 49 16C49.1 16 49.19 16.02 49.29 16.03C49.49 15.36 49.78 14.74 50.15 14.17C51.4 12.26 53.55 11 56 11C58.45 11 60.6 12.26 61.85 14.17C62.22 14.74 62.51 15.36 62.71 16.03C62.81 16.02 62.9 16 63 16C64.1 16 65 16.9 65 18C65 19.1 64.1 20 63 20ZM51.5 20C52.26 21.77 53.99 23 56 23C58.01 23 59.74 21.77 60.5 20H51.5Z" fill="white"/>
</svg>
